<?xml version="1.0" encoding="utf-8"?>
<!DOCTYPE svg PUBLIC "-//W3C//DTD SVG 1.1//EN">
<svg width="30" version="1.1" xmlns="http://www.w3.org/2000/svg" xmlns:xlink="http://www.w3.org/1999/xlink" x="0px" y="0px" viewBox="0 0 1000 1000" enable-background="new 0 0 1000 1000" xml:space="preserve">
<g><g transform="translate(0.000000,512.000000) scale(0.100000,-0.100000)"><path d="M4573.9,5015c-968.7-85.4-1848.2-431-2603.4-1027c-211.6-167-627.1-594.1-790.1-811.5c-671.7-895-1009.5-1951.1-968.7-3022.7C260.1-1044,729.9-2137,1566.7-2993.1c745.5-761,1803.5-1269.7,2861.6-1376.4c118.4-11.6,273.7-19.4,347.5-15.5l134,5.8l215.5,790.1l215.5,792.1l374.7,374.7l374.7,376.6l-44.6,75.7c-40.8,67.9-44.6,102.9-50.5,368.9l-7.8,293.1l126.2,182.5c147.5,213.5,295.1,487.3,380.5,706.7c52.4,134,71.8,161.1,139.8,200c99,56.3,203.8,198,242.7,328.1c23.3,83.5,29.1,184.4,23.3,533.9c-5.8,429-5.8,434.9-58.2,533.9c-29.1,54.4-62.1,106.8-73.8,112.6c-15.5,9.7-21.4,192.2-17.5,568.8c2,349.4-5.8,590.2-19.4,646.5C6583.2,3130,6125,3508.5,5379.5,3623.1c-269.9,40.8-863.9,25.2-1096.9-29.1c-526.1-124.3-869.7-366.9-1065.8-759.1C3094.5,2594.1,3079,2483.5,3079,1870v-549.4l-58.2-91.3c-87.4-137.8-101-242.7-93.2-687.2c5.8-380.5,7.8-401.9,56.3-504.8c27.2-58.2,75.7-133.9,106.8-167c38.8-40.8,79.6-128.1,120.4-252.4c79.6-238.8,221.3-528.1,363-743.5l106.8-165v-281.5c0-314.5-21.4-392.2-128.1-489.2c-31.1-27.2-374.7-223.3-764.9-434.9c-390.2-211.6-728-398-753.2-413.5c-42.7-27.2-50.5-21.4-213.6,143.7C1139.6-2072.9,706.6-1193.5,586.3-257.8C547.4,49,545.5,567.3,584.3,864.4c124.2,947.4,533.9,1797.7,1193.9,2479.1c665.9,691.1,1498.7,1127.9,2455.8,1289.1c300.9,50.5,1096.9,48.5,1378.4-1.9c648.4-116.5,1219.2-343.6,1725.9-687.2c267.9-178.6,456.2-335.9,693.1-580.5c236.8-242.7,359.2-392.2,528.1-646.5c452.3-685.3,700.8-1483.2,718.3-2318l5.8-289.3l87.4-56.3c46.6-33,116.5-89.3,155.3-126.2l69.9-66l11.6,102.9c7.8,56.3,13.6,207.7,13.6,335.9c0,1225-467.9,2393.7-1308.5,3267.3c-739.7,766.9-1683.2,1256.1-2729.6,1411.4C5387.3,5007.3,4752.5,5030.6,4573.9,5015z"/><path d="M8650.7-310.2c-27.2-7.8-75.7-29.1-106.8-46.6c-33-17.5-662-636.8-1401.7-1376.4L5798.8-3078.6l-178.6-660.1c-168.9-623.2-182.5-664-246.5-731.9c-85.4-91.2-95.1-182.5-23.3-258.2c69.9-73.8,172.8-67.9,267.9,17.5c66,60.2,128.1,81.5,722.2,244.6c357.2,99,664,186.4,679.5,194.1c17.5,9.7,627.1,615.4,1355.1,1347.3c834.8,840.6,1337.6,1360.9,1362.9,1409.4c60.2,116.5,69.9,244.6,29.1,380.5c-31.1,106.8-52.4,133.9-345.6,431C9248.7-529.5,9072-368.4,9029.3-347C8945.8-302.4,8734.2-283,8650.7-310.2z M9161.3-929.5c380.5-378.6,378.6-343.6,23.3-700.8l-262.1-264l-363,363l-365,365L8446.9-912c139.8,139.8,269.9,262.1,291.2,269.8C8817.7-607.2,8875.9-646,9161.3-929.5z M8320.7-1777.8l359.2-359.2l-879.4-879.4l-877.5-877.5l-363,365l-365,363l873.6,873.6c479.5,479.5,877.5,873.6,883.3,873.6S8122.7-1579.8,8320.7-1777.8z M6573.5-4041.5c0-11.7-724.1-211.6-733.8-203.8c-2,3.9,40.8,172.8,97.1,378.6l100.9,372.7l267.9-267.9C6453.1-3909.5,6573.5-4033.7,6573.5-4041.5z"/></g></g>
</svg>
